<?xml version="1.0" standalone="no"?>
<!DOCTYPE svg PUBLIC "-//W3C//DTD SVG 20010904//EN"
 "http://www.w3.org/TR/2001/REC-SVG-20010904/DTD/svg10.dtd">
<svg version="1.0" xmlns="http://www.w3.org/2000/svg"
 width="260.000000pt" height="260.000000pt" viewBox="0 0 260.000000 260.000000"
 preserveAspectRatio="xMidYMid meet">
<metadata>
Created by potrace 1.14, written by Peter Selinger 2001-2017
</metadata>
<g transform="translate(0.000000,260.000000) scale(0.100000,-0.100000)"
fill="#000000" stroke="none">
<path d="M1126 2140 c-71 -13 -96 -36 -133 -124 -18 -42 -44 -96 -58 -120
l-25 -43 -104 -6 c-160 -9 -218 -49 -186 -126 16 -38 29 -50 141 -121 52 -33
99 -63 105 -68 7 -7 7 -34 -2 -95 -10 -66 -20 -97 -42 -129 -38 -56 -49 -93
-63 -208 -8 -71 -18 -111 -41 -156 -48 -94 -46 -93 -144 -109 -108 -17 -227
-73 -303 -141 -28 -25 -100 -101 -161 -169 l-111 -124 3 -126 c3 -126 3 -126
23 -107 16 15 26 17 49 11 16 -5 26 -6 23 -2 -4 3 -2 14 4 24 7 15 6 19 -6 19
-8 0 -15 -5 -15 -11 0 -5 -5 -7 -11 -4 -6 4 -8 10 -5 13 3 3 -1 14 -11 24 -9
10 -14 18 -11 18 15 0 118 -40 153 -60 l40 -22 -39 36 c-22 20 -35 36 -30 37
5 0 -4 7 -21 14 -22 11 -25 14 -11 15 20 0 20 0 0 14 -10 8 -17 17 -14 20 8 7
108 -40 147 -70 37 -28 40 -29 40 -9 0 8 -6 15 -13 15 -7 0 -18 8 -23 18 -5 9
-41 37 -80 62 -39 25 -71 48 -71 52 0 4 15 5 33 2 17 -2 49 -6 70 -8 21 -2 41
-6 44 -10 16 -15 24 -4 10 12 -10 10 -15 21 -12 24 3 3 -14 26 -37 53 -41 46
-41 47 -11 32 17 -9 52 -33 79 -53 48 -37 45 -20 -5 23 -36 31 -13 29 35 -3
l39 -26 -25 27 c-14 15 -38 36 -55 46 -18 12 -24 19 -14 19 9 0 32 -11 52 -24
33 -23 42 -18 23 13 -5 8 -4 16 2 20 14 8 3 25 -26 40 -13 7 -21 15 -19 18 3
2 14 0 26 -6 23 -13 43 5 21 19 -20 12 -3 49 21 43 10 -3 22 -10 25 -15 3 -5
-6 -6 -21 -2 l-27 7 30 -31 c18 -18 32 -45 36 -71 6 -39 26 -59 26 -26 0 8 6
15 14 15 9 0 13 -9 11 -25 -1 -14 4 -33 11 -42 7 -10 14 -37 14 -60 0 -23 5
-43 12 -45 6 -2 13 -15 15 -29 2 -13 8 -26 14 -27 6 -3 6 -9 -2 -18 -9 -11 -8
-14 5 -14 9 0 16 5 16 11 0 6 9 9 20 6 11 -3 23 -1 26 4 11 19 34 9 34 -15 0
-14 5 -28 10 -31 6 -4 10 -16 9 -28 -1 -12 -1 -64 -1 -114 l2 -93 88 0 87 0
-2 100 c-2 65 1 100 8 100 6 0 8 8 5 18 -5 15 1 17 43 17 27 0 47 -3 44 -7
-11 -19 16 -6 31 14 11 17 14 18 9 5 -4 -12 -1 -18 8 -17 34 5 60 -1 53 -11
-4 -8 1 -9 17 -4 30 9 79 54 79 72 0 7 5 13 11 13 5 0 7 5 4 10 -3 6 -1 10 5
10 6 0 9 4 5 9 -3 6 6 8 20 5 23 -4 25 -1 25 31 0 19 4 35 9 35 13 0 24 -36
17 -58 -2 -9 -1 -46 3 -82 7 -57 9 -46 11 80 2 114 4 136 11 101 5 -25 12 -47
17 -50 9 -6 18 -45 29 -116 7 -52 11 -56 19 -17 4 18 12 32 19 32 15 0 39 -55
30 -69 -7 -12 17 -41 34 -41 6 0 17 -13 26 -30 15 -28 47 -54 57 -45 2 3 17
-9 33 -25 33 -35 86 -40 135 -15 16 8 33 15 37 14 21 -3 51 15 67 42 31 53 44
39 48 -54 l2 -67 32 0 c33 0 35 6 19 42 -8 21 0 48 15 48 9 0 14 -16 13 -46 0
-6 8 -9 18 -7 26 7 24 -6 -3 -18 -21 -8 -20 -9 5 -4 19 4 26 2 22 -5 -3 -5 1
-10 9 -10 21 0 20 30 -1 45 -13 9 -13 14 -3 20 9 5 11 4 6 -3 -4 -7 -2 -12 3
-12 6 0 11 6 11 13 0 6 5 73 10 147 6 74 11 149 12 165 3 31 35 67 55 60 6 -2
14 3 17 11 3 7 2 13 -2 12 -4 -1 -15 2 -24 5 -10 4 -25 9 -34 12 -14 5 -16 14
-10 58 3 28 13 70 21 92 8 22 14 61 15 88 0 43 2 47 24 47 13 0 27 -6 29 -12
4 -10 8 -10 15 1 6 8 19 12 32 8 21 -5 20 -3 -9 27 -25 26 -31 40 -31 74 0 76
-17 101 -134 199 -21 18 -26 30 -26 68 0 37 -6 55 -30 85 -16 21 -30 43 -30
49 0 6 25 18 55 26 58 17 85 43 85 83 0 32 -17 62 -36 62 -8 0 -17 7 -21 16
-3 8 -12 13 -20 10 -8 -3 -12 -2 -8 3 3 5 -7 18 -23 29 -31 23 -307 162 -320
162 -4 0 -26 9 -48 19 -22 11 -66 28 -99 39 -64 22 -127 52 -109 52 20 0 216
-77 329 -129 l110 -50 3 30 c3 26 -5 39 -45 77 -74 72 -104 94 -196 142 -47
24 -84 47 -81 51 2 4 -4 5 -14 3 -9 -3 -27 4 -39 15 -12 11 -33 23 -47 27 -14
3 -30 12 -37 20 -9 11 -15 11 -25 3 -10 -8 -14 -8 -14 0 0 6 6 11 13 11 8 0 7
4 -3 10 -11 8 -7 9 15 4 17 -4 32 -8 34 -10 2 -2 12 8 23 21 11 14 27 25 36
25 14 0 14 2 3 9 -8 5 -10 14 -5 22 6 11 5 12 -8 2 -12 -11 -19 -9 -38 7 -13
11 -21 22 -18 25 7 7 38 -5 38 -15 0 -4 12 -5 26 -2 l26 5 -33 15 c-19 8 -61
21 -94 27 -60 13 -59 14 30 19 28 1 114 -14 160 -29 15 -5 17 -4 5 3 -48 32
-239 56 -324 42z m194 -140 c-6 -11 -16 -20 -22 -20 -6 0 -5 6 3 17 12 15 12
16 -4 10 -11 -4 -16 -3 -12 3 3 6 15 10 26 10 17 0 18 -3 9 -20z m-493 -166
c-3 -3 -12 -4 -19 -1 -8 3 -5 6 6 6 11 1 17 -2 13 -5z m136 -11 c-7 -2 -19 -2
-25 0 -7 3 -2 5 12 5 14 0 19 -2 13 -5z m137 -13 l25 -8 -25 0 c-14 0 -34 3
-45 8 l-20 9 20 -1 c11 0 31 -4 45 -8z m100 -30 c-8 -5 -22 -9 -30 -9 -10 0
-8 3 5 9 27 12 43 12 25 0z m64 -9 c17 -7 18 -8 3 -14 -9 -3 -19 -2 -23 4 -3
6 -13 8 -21 5 -8 -3 -11 -1 -8 4 7 11 22 12 49 1z m66 -343 c0 -5 -11 -8 -25
-8 -14 0 -25 3 -25 8 0 4 11 7 25 7 14 0 25 -3 25 -7z m164 -9 c34 -20 38 -29
38 -79 0 -3 -3 -22 -6 -42 -9 -48 6 -49 28 -3 9 19 21 35 27 35 11 0 4 -15
-20 -44 -15 -18 -14 -19 22 -12 36 7 37 6 25 -13 -18 -30 -2 -37 22 -10 l21
24 -16 -33 c-20 -41 -58 -61 -86 -44 -17 11 -21 9 -30 -15 -5 -16 -17 -47 -26
-71 -9 -23 -29 -55 -45 -71 -31 -31 -227 -114 -255 -109 -11 2 -19 14 -21 28
-2 20 8 32 48 59 48 32 55 43 51 84 -1 9 2 17 7 17 14 0 33 48 22 55 -11 7 12
58 40 90 19 22 37 80 22 71 -14 -8 -27 15 -27 44 0 19 5 24 19 22 33 -6 68 8
62 23 -8 23 36 19 78 -6z m-333 -111 c12 -23 12 -68 0 -68 -5 0 -14 7 -21 15
-7 8 -24 15 -37 15 -25 0 -25 1 -9 25 9 13 16 33 16 44 0 27 23 32 34 7 4 -11
12 -29 17 -38z m-716 -698 c19 -8 19 -9 -2 -9 -12 -1 -25 4 -28 9 -7 12 2 12
30 0z m775 -129 c0 -6 -4 -13 -10 -16 -5 -3 -10 1 -10 9 0 9 5 16 10 16 6 0
10 -4 10 -9z m680 -421 c0 -5 -2 -10 -4 -10 -3 0 -8 5 -11 10 -3 6 -1 10 4 10
6 0 11 -4 11 -10z"/>
<path d="M1560 1243 c0 -14 19 -38 25 -32 8 8 -5 39 -16 39 -5 0 -9 -3 -9 -7z"/>
<path d="M1299 1049 c-6 -4 1 -6 15 -6 15 0 29 3 31 8 6 9 -31 8 -46 -2z"/>
<path d="M1752 1760 c0 -14 2 -19 5 -12 2 6 2 18 0 25 -3 6 -5 1 -5 -13z"/>
<path d="M1764 1566 c11 -9 24 -16 30 -16 12 0 7 5 -24 19 -24 11 -24 11 -6
-3z"/>
<path d="M2130 746 c0 -2 8 -10 18 -17 15 -13 16 -12 3 4 -13 16 -21 21 -21
13z"/>
<path d="M2250 636 c0 -2 8 -10 18 -17 15 -13 16 -12 3 4 -13 16 -21 21 -21
13z"/>
<path d="M2350 536 c0 -2 8 -10 18 -17 15 -13 16 -12 3 4 -13 16 -21 21 -21
13z"/>
<path d="M2465 420 c10 -11 20 -20 23 -20 3 0 -3 9 -13 20 -10 11 -20 20 -23
20 -3 0 3 -9 13 -20z"/>
<path d="M2565 320 c10 -11 20 -20 23 -20 3 0 -3 9 -13 20 -10 11 -20 20 -23
20 -3 0 3 -9 13 -20z"/>
<path d="M1210 161 c0 -25 -3 -28 -21 -24 -16 4 -17 8 -7 14 10 7 9 9 -4 9 -9
0 -18 5 -20 12 -2 6 -10 9 -17 7 -9 -3 -6 -12 9 -32 13 -16 28 -26 35 -23 7 2
18 -1 24 -7 8 -8 11 0 11 31 0 23 -2 42 -5 42 -3 0 -5 -13 -5 -29z"/>
<path d="M456 38 c4 -17 2 -28 -4 -28 -6 0 -13 10 -15 23 -4 19 -4 18 -6 -5
-1 -26 2 -28 34 -28 29 0 35 4 35 21 0 12 -5 19 -12 16 -7 -2 -19 3 -26 12
-10 14 -11 12 -6 -11z"/>
<path d="M377 20 c-3 -13 0 -20 9 -20 8 0 14 9 14 20 0 11 -4 20 -9 20 -5 0
-11 -9 -14 -20z"/>
<path d="M330 15 c-10 -13 -9 -15 8 -15 15 0 20 5 16 15 -8 19 -9 19 -24 0z"/>
<path d="M2108 3 c7 -3 16 -2 19 1 4 3 -2 6 -13 5 -11 0 -14 -3 -6 -6z"/>
</g>
</svg>
